Coordinates
version=1
nRows=7
nColumns=63
inDegrees=yes

Units are S.I. units (second, meters, Newtons, ...)
If the header above contains a line with 'inDegrees', this indicates whether rotational values are in degrees (yes) or radians (no).

endheader
time	pelvis_tilt	pelvis_list	pelvis_rotation	pelvis_tx	pelvis_ty	pelvis_tz	hip_flexion_r	hip_adduction_r	hip_rotation_r	knee_angle_r	knee_angle_r_beta	ankle_angle_r	subtalar_angle_r	mtp_angle_r	hip_flexion_l	hip_adduction_l	hip_rotation_l	knee_angle_l	knee_angle_l_beta	ankle_angle_l	subtalar_angle_l	mtp_angle_l	L5_S1_Flex_Ext	L5_S1_Lat_Bending	L5_S1_axial_rotation	L4_L5_Flex_Ext	L4_L5_Lat_Bending	L4_L5_axial_rotation	L3_L4_Flex_Ext	L3_L4_Lat_Bending	L3_L4_axial_rotation	L2_L3_Flex_Ext	L2_L3_Lat_Bending	L2_L3_axial_rotation	L1_L2_Flex_Ext	L1_L2_Lat_Bending	L1_L2_axial_rotation	L1_T12_Flex_Ext	L1_T12_Lat_Bending	L1_T12_axial_rotation	Abs_r3	Abs_r2	Abs_r1	Abs_t1	Abs_t2	neck_flexion	neck_bending	neck_rotation	arm_flex_r	arm_add_r	arm_rot_r	elbow_flex_r	pro_sup_r	wrist_flex_r	wrist_dev_r	arm_flex_l	arm_add_l	arm_rot_l	elbow_flex_l	pro_sup_l	wrist_flex_l	wrist_dev_l
      3.24390244	     -2.02935792	      2.09409300	     87.63162309	      0.24034405	      0.83970624	      0.70833350	    -10.55110780	     -0.81680111	      2.39944352	      3.04211676	      0.05309495	     25.94210312	     -1.44063397	      0.00000000	     -8.17340970	      1.72084513	      8.25418699	      3.47845469	      0.06071049	     30.22523106	     -9.39873594	      0.00000000	      0.00733378	     -0.26182912	     -0.41466967	      0.01361956	     -0.34823273	     -0.44058652	      0.01204866	     -0.63661132	     -0.44058652	      0.00838178	     -0.63661132	     -0.36283596	      0.00681015	     -0.53392194	     -0.33691911	      0.00419052	     -0.40557331	     -0.31100225	      0.05238445	     -2.96186337	     -2.30626830	      0.00000000	      0.00000000	     12.14545946	      4.97313207	     11.06949387	     35.41642616	     -9.30452428	      0.77837961	    128.68987026	     88.39129158	     -7.21358062	     16.25000478	     40.56929796	    -23.25561081	    -14.32970314	    129.38538433	     88.91133582	     -7.48776012	     -3.78822094
      3.26829268	     -1.96798503	      1.86168891	     87.62975647	      0.24044314	      0.83904180	      0.70741324	    -10.39188113	     -0.68341474	      4.17652283	      2.88765277	      0.05039905	     25.45353475	     -3.83251568	      0.00000000	     -8.01532840	      1.64766808	      8.27207825	      3.44826606	      0.06018360	     30.33210701	     -9.61196121	      0.00000000	      0.02882082	     -0.24806611	     -0.42256095	      0.05352314	     -0.32992793	     -0.44897101	      0.04734972	     -0.60314794	     -0.44897101	      0.03293931	     -0.60314794	     -0.36974083	      0.02676301	     -0.50585641	     -0.34333077	      0.01646822	     -0.38425440	     -0.31692071	      0.20586422	     -2.80617344	     -2.35015724	      0.00000000	      0.00000000	     12.58075978	      4.85734948	     11.60821336	     34.73693229	     -9.47682205	      0.51587275	    131.00032658	     87.94853063	     -4.46064009	     18.82930728	     39.34121201	    -23.52860298	    -17.37755785	    132.89052066	     88.80440236	     -4.13400592	     -1.74471329
      3.29268293	     -1.97294857	      1.94430252	     87.76240234	      0.24045818	      0.83885985	      0.70667434	    -10.48407079	     -0.65198647	      4.16907683	      2.85199874	      0.04977677	     25.44748672	     -4.04886123	      0.00000000	     -8.10695440	      1.62201159	      8.37292486	      3.51991028	      0.06143402	     30.37692352	     -9.51994290	      0.00000000	      0.00455411	     -0.25489164	     -0.37104174	      0.00845744	     -0.33900588	     -0.39423185	      0.00748195	     -0.61974353	     -0.39423185	      0.00520489	     -0.61974353	     -0.32466152	      0.00422895	     -0.51977503	     -0.30147141	      0.00260222	     -0.39482715	     -0.27828130	      0.03252955	     -2.88338519	     -2.06362284	      0.00000000	      0.00000000	     12.78534901	      4.84509157	     11.32878452	     33.66966896	    -10.11951294	      0.32679412	    133.06255239	     87.66525027	     -4.11560780	     18.67850117	     38.50547325	    -23.96084568	    -18.60466354	    135.22151978	     88.70172159	     -3.97821379	     -1.89598150
      3.31707317	     -1.93222281	      1.58895154	     87.89125417	      0.24042225	      0.83808046	      0.70590196	    -10.25292718	     -0.49888155	      6.41341957	      2.48986766	      0.04345639	     24.41739705	     -7.58410439	      0.00000000	     -7.75329422	      1.52395393	      8.23544095	      3.46846104	      0.06053607	     30.61148308	     -8.94540806	      0.00000000	      0.05116080	     -0.25167244	     -0.40816190	      0.09501073	     -0.33472434	     -0.43367202	      0.08405209	     -0.61191637	     -0.43367202	      0.05847168	     -0.61191637	     -0.35714166	      0.04750792	     -0.51321044	     -0.33163154	      0.02923328	     -0.38984061	     -0.30612142	      0.36543651	     -2.84696896	     -2.27007402	      0.00000000	      0.00000000	     13.15446063	      4.47729157	     11.16016836	     32.78754045	    -10.03201228	     -0.56789652	    134.56769928	     87.17752535	     -0.14778441	     19.27735170	     37.31069494	    -24.14388073	    -22.50217938	    138.47214636	     88.70794975	      2.21362428	      2.68395168
      3.34146341	     -1.90462955	      1.47241088	     88.00851185	      0.24062969	      0.83767807	      0.70534994	    -10.21163526	     -0.43919164	      6.55985521	      2.29959750	      0.04013555	     24.20090775	     -7.86507158	      0.00000000	     -7.65831315	      1.43428819	      8.41796866	      3.34501700	      0.05838156	     30.60656151	     -8.74632688	      0.00000000	      0.06300908	     -0.26849087	     -0.37877234	      0.11701417	     -0.35709286	     -0.40244561	      0.10351762	     -0.65280871	     -0.40244561	      0.07201308	     -0.65280871	     -0.33142579	      0.05851023	     -0.54750659	     -0.30775252	      0.03600339	     -0.41589236	     -0.28407925	      0.45006758	     -3.03722245	     -2.10661810	      0.00000000	      0.00000000	     13.41898746	      4.45731972	     10.20026528	     31.77620632	    -10.28126404	     -1.04047729	    135.70226400	     87.32577663	      0.09222275	     18.18431014	     36.25408116	    -24.46572391	    -23.83571651	    140.75651046	     88.78050719	      2.50897549	      2.83485583
      3.36585366	     -1.90810266	      1.63345460	     88.02510491	      0.24065462	      0.83767873	      0.70472221	    -10.43712429	     -0.44846603	      7.30253379	      2.19345912	      0.03828308	     23.73120840	     -9.15615669	      0.00000000	     -7.87242221	      1.42146178	      8.66569336	      3.26014965	      0.05690035	     30.69746070	     -8.72038533	      0.00000000	      0.05457241	     -0.28845221	     -0.34232106	      0.10134643	     -0.38364144	     -0.36371613	      0.08965702	     -0.70134271	     -0.36371613	      0.06237081	     -0.70134271	     -0.29953093	      0.05067594	     -0.58821175	     -0.27813586	      0.03118268	     -0.44681248	     -0.25674080	      0.38980528	     -3.26302913	     -1.90388706	      0.00000000	      0.00000000	     13.18183812	      3.97154086	      8.66535865	     30.89571640	    -10.46333176	     -1.40846775	    135.55723209	     87.54766031	      0.73461206	     13.49855178	     35.36821355	    -24.42844945	    -25.43464392	    142.65107125	     88.80219357	      4.68761010	      5.03935660
      3.39024390	     -1.84963555	      1.84828070	     87.79628219	      0.24085935	      0.83780353	      0.70421572	    -10.70663214	     -0.45310625	      8.00572377	      2.10974172	      0.03682194	     23.34739970	    -10.01926116	      0.00000000	     -8.23008182	      1.38574729	      9.06191028	      3.03085894	      0.05289847	     30.50971994	     -9.10484769	      0.00000000	      0.05290235	     -0.28543432	     -0.32377099	      0.09824495	     -0.37962765	     -0.34400667	      0.08691326	     -0.69400501	     -0.34400667	      0.06046209	     -0.69400501	     -0.28329961	      0.04912512	     -0.58205767	     -0.26306393	      0.03022840	     -0.44213777	     -0.24282824	      0.37787617	     -3.22889014	     -1.80071710	      0.00000000	      0.00000000	     12.47728967	      3.88856066	      8.54780213	     30.61507579	    -10.51040086	     -0.92815185	    135.03642914	     87.62964757	      0.38575497	     10.65732144	     34.25133307	    -24.54162041	    -26.78713594	    143.42313121	     88.83544392	      5.40846879	      6.38525552
